<svg width="0" height="0" class="hidden">
  <symbol viewBox="0 0 33 35" xmlns="http://www.w3.org/2000/svg" xmlns:xlink="http://www.w3.org/1999/xlink" id="icon-25g">
    <title>Group 5</title>
    <defs>
      <path d="M13.978 1.399c0 .573.487 1.038 1.088 1.038 8.647 0 15.683 6.729 15.683 15.001 0 .575.487 1.04 1.086 1.04.601 0 1.087-.465 1.087-1.04 0-9.418-8.011-17.08-17.856-17.08-.601 0-1.088.466-1.088 1.04zm-.019 6.356c0 .575.484 1.041 1.085 1.041 4.896 0 8.88 3.81 8.88 8.495 0 .573.486 1.04 1.086 1.04.6 0 1.087-.467 1.087-1.04 0-5.833-4.958-10.575-11.053-10.575-.601 0-1.085.466-1.085 1.04zM.819 15.838C.272 16.418 0 16.926 0 17.36c0 .103.054.174.162.21l.946.343.161.042c.219-.33.44-.666.668-1.005.255-.302.604-.453 1.048-.453.374 0 .673.103.887.31.216.207.325.514.325.918 0 .602-.583 1.415-1.76 2.437C1.266 21.18.605 21.842.45 22.145a3.843 3.843 0 0 0-.311.79c-.054.226-.079.716-.079 1.469 0 .16.062.24.19.24h5.337c.13 0 .209-.018.244-.05s.051-.114.051-.247v-1.033c0-.16-.018-.248-.059-.268a.607.607 0 0 0-.236-.03H2.115c.027-.29.111-.544.242-.754.133-.212.638-.665 1.515-1.355.879-.691 1.448-1.228 1.71-1.603.259-.376.39-.928.39-1.653 0-.865-.245-1.53-.739-1.99-.493-.462-1.184-.694-2.07-.694-1.015 0-1.795.29-2.343.871zm10.236-.656c-.115 0-.195.011-.235.043-.04.03-.065.108-.073.237l-.458 4.655-.016.14c0 .079.08.14.236.186l.887.269.164.042.679-.537c.267-.15.597-.228.991-.228.492 0 .865.136 1.115.406.253.267.378.622.378 1.067 0 .556-.195 1.01-.583 1.364-.391.354-.929.532-1.62.532-.295 0-.626-.044-.99-.13a8.8 8.8 0 0 1-1.02-.296c-.07 0-.115.042-.133.129l-.206 1.032-.015.154c0 .18.265.332.796.453a7.24 7.24 0 0 0 1.643.186c1.19 0 2.128-.322 2.81-.962.678-.644 1.018-1.473 1.018-2.49 0-.83-.253-1.527-.76-2.088-.506-.56-1.193-.842-2.06-.842-.374 0-.67.04-.886.121a3.231 3.231 0 0 0-.618.305l.251-2.263h3.039c.138 0 .224-.018.259-.053.033-.03.05-.113.05-.244v-.908c0-.12-.018-.2-.05-.232-.035-.033-.121-.048-.259-.048h-4.334zm-3.93 7.411a1.257 1.257 0 0 0-.415.946c0 .387.138.71.415.964.275.252.607.381.989.381.386 0 .715-.133.993-.396a1.27 1.27 0 0 0 .41-.949c0-.376-.134-.694-.403-.953a1.398 1.398 0 0 0-1-.39 1.38 1.38 0 0 0-.989.397z"
        id="a"></path>
    </defs>
    <g fill="none" fill-rule="evenodd">
      <mask id="b" fill="#fff">
        <use xlink:href="#a"></use>
      </mask>
      <path fill="#020303" mask="url(#b)" d="M-6.875 31.464h46.672V-6.22H-6.875z"></path>
      <text font-family="OfficinaSerif-Bold, ITC Officina Serif" font-size="10" font-weight="bold" fill="#231F20">
        <tspan x="0" y="33.5">GHz</tspan>
      </text>
    </g>
  </symbol>
  <symbol viewBox="0 0 30 19" xmlns="http://www.w3.org/2000/svg" xmlns:xlink="http://www.w3.org/1999/xlink" id="icon-chip">
    <title>Group 3</title>
    <defs>
      <path id="a" d="M0 0h30v19H0z"></path>
    </defs>
    <g fill="none" fill-rule="evenodd">
      <mask id="b" fill="#fff">
        <use xlink:href="#a"></use>
      </mask>
      <path d="M21.54 19H2.123C1.11 19 .237 18.245.049 17.206c-.1-.55.244-1.085.771-1.189.525-.105 1.033.257 1.135.809a.17.17 0 0 0 .169.14h19.415c.39 0 .756-.155 1.029-.438l5.04-5.292a1.55 1.55 0 0 0 .453-1.098V3.566c0-.845-.655-1.532-1.459-1.532H2.113c-.095 0-.174.085-.174.184v1.467c0 .097.08.184.174.184h10.155c1.166 0 2.115.995 2.115 2.217v6.709c0 1.223-.949 2.22-2.115 2.22H2.124c-1.165 0-2.114-.997-2.114-2.22V7.979c0-.56.435-1.016.97-1.016.536 0 .97.455.97 1.016v4.816c0 .1.08.186.174.186h10.144c.095 0 .175-.086.175-.186V6.086c0-.105-.075-.185-.175-.185H2.113C.946 5.901 0 4.907 0 3.685V2.218C0 .995.946 0 2.113 0h24.49C28.474 0 30 1.6 30 3.566v6.572c0 .961-.376 1.891-1.035 2.55l-5.03 5.282A3.303 3.303 0 0 1 21.539 19"
        fill="#231F20" mask="url(#b)"></path>
    </g>
  </symbol>
  <symbol viewBox="0 0 32 32" xmlns="http://www.w3.org/2000/svg" xmlns:xlink="http://www.w3.org/1999/xlink" id="icon-cobertura">
    <title>Group 3</title>
    <defs>
      <path id="a" d="M0 0h32v32H0z"></path>
    </defs>
    <g fill="none" fill-rule="evenodd">
      <mask id="b" fill="#fff">
        <use xlink:href="#a"></use>
      </mask>
      <path d="M9.445 18.609a.908.908 0 0 1-.65-.27 9.747 9.747 0 0 1-2.877-6.943 9.74 9.74 0 0 1 2.876-6.94.923.923 0 1 1 1.303 1.31 7.902 7.902 0 0 0-2.33 5.63c0 2.133.827 4.132 2.33 5.638a.922.922 0 0 1-.652 1.575m13.1 0a.925.925 0 0 1-.656-.27.93.93 0 0 1 .001-1.306 7.91 7.91 0 0 0 2.334-5.638 7.886 7.886 0 0 0-2.334-5.629.931.931 0 0 1-.001-1.308.926.926 0 0 1 1.307-.001 9.748 9.748 0 0 1 2.876 6.938 9.759 9.759 0 0 1-2.876 6.946.922.922 0 0 1-.65.268m4.19 4.187a.922.922 0 0 1-.656-1.575 13.8 13.8 0 0 0 4.07-9.825c0-3.707-1.443-7.193-4.07-9.818a.926.926 0 0 1 0-1.307.922.922 0 0 1 1.306 0A15.62 15.62 0 0 1 32 11.396c0 4.204-1.637 8.156-4.614 11.13a.918.918 0 0 1-.65.27m-21.481 0a.914.914 0 0 1-.652-.27c-6.137-6.14-6.137-16.121 0-22.255a.923.923 0 0 1 1.304 1.307 13.795 13.795 0 0 0-4.068 9.818c0 3.712 1.446 7.198 4.068 9.825a.922.922 0 0 1-.652 1.575M19.159 32h-6.33a.927.927 0 0 1-.858-1.269l1.308-3.24a.924.924 0 1 1 1.715.694l-.796 1.967h3.607l-2.71-6.919a.922.922 0 0 1-.065-.337V15.31a3.504 3.504 0 0 1-1.7-1.028 3.558 3.558 0 0 1 .222-5.004 3.548 3.548 0 0 1 5.007.228 3.542 3.542 0 0 1 .87 3.026.93.93 0 0 1-1.078.74.922.922 0 0 1-.74-1.077 1.678 1.678 0 0 0-.414-1.44 1.699 1.699 0 0 0-2.398-.113 1.702 1.702 0 0 0-.101 2.397c.32.35.763.546 1.25.546.45 0 .836.325.911.77.008.049.02.143.02.193v8.173l3.14 8.02A.922.922 0 0 1 19.16 32"
        fill="#231F20" mask="url(#b)"></path>
    </g>
  </symbol>
  <symbol viewBox="0 0 32 25" xmlns="http://www.w3.org/2000/svg" xmlns:xlink="http://www.w3.org/1999/xlink" id="icon-4g">
    <title>Combined Shape</title>
    <defs>
      <path d="M9 18v3H6l3-3zm2.108 2.51h.995c.494 0 .897.41.897.912s-.403.91-.897.91h-.995v1.757a.905.905 0 0 1-.897.911.905.905 0 0 1-.896-.91v-1.757H5.226c-.496 0-.941-.303-1.133-.77a1.259 1.259 0 0 1 .265-1.355l4.79-4.864a1.12 1.12 0 0 1 1.252-.252c.43.18.708.604.708 1.076v4.342zM18.089 0C27.965 0 36 7.611 36 16.967 36 17.54 35.513 18 34.91 18c-.6 0-1.089-.461-1.089-1.033 0-8.216-7.057-14.9-15.732-14.9-.602 0-1.089-.463-1.089-1.033C17 .463 17.487 0 18.09 0zm.895 6C24.508 6 29 10.491 29 16.014a.984.984 0 1 1-1.969 0c0-4.435-3.61-8.044-8.047-8.044a.984.984 0 0 1 0-1.97zm1.1 13.18c.506 0 .916.41.916.914v3.669a.911.911 0 0 1-.647.871 7.9 7.9 0 0 1-2.408.366C14.941 25 13 23.023 13 19.96c0-2.782 2.172-4.96 4.945-4.96 1.011 0 1.786.104 2.44.329a.912.912 0 1 1-.6 1.724c-.454-.155-1.039-.229-1.84-.229-1.776 0-3.113 1.347-3.113 3.136 0 2.042 1.133 3.213 3.113 3.213a5.91 5.91 0 0 0 1.223-.118v-2.048h-1.203a.917.917 0 0 1-.916-.913c0-.505.411-.914.916-.914h2.12z"
        id="a"></path>
    </defs>
    <use fill="#231F20" xlink:href="#a" transform="translate(-4)" fill-rule="evenodd"></use>
  </symbol>
</svg>