<?xml version="1.0" encoding="UTF-8"?>
<svg width="28px" height="33px" viewBox="0 0 28 33" version="1.1" xmlns="http://www.w3.org/2000/svg" xmlns:xlink="http://www.w3.org/1999/xlink">
    <!-- Generator: Sketch 49.3 (51167) - http://www.bohemiancoding.com/sketch -->
    <title>lapis</title>
    <desc>Created with Sketch.</desc>
    <defs>
        <polygon id="path-1" points="1.27660886 1.25264449 24.6508043 1.25264449 24.6508043 21.1506793 1.27660886 21.1506793"></polygon>
        <polygon id="path-3" points="0 0.000135869565 22.7921674 0.000135869565 22.7921674 32.6086957 0 32.6086957"></polygon>
    </defs>
    <g id="Symbols" stroke="none" stroke-width="1" fill="none" fill-rule="evenodd">
        <g id="BANNER_PRINCIPAL" transform="translate(-728.000000, -240.000000)">
            <g id="Banner">
                <g id="3" transform="translate(686.000000, 226.000000)">
                    <g id="icon" transform="translate(25.000000, 0.000000)">
                        <g id="lapis" transform="translate(16.956522, 14.347826)">
                            <g id="Group-3" transform="translate(2.739130, 6.793478)">
                                <mask id="mask-2" fill="white">
                                    <use xlink:href="#path-1"></use>
                                </mask>
                                <g id="Clip-2"></g>
                                <path d="M6.94136739,13.259375 L10.2433891,17.0759511 L22.944737,6.73899457 L19.6440848,2.92241848 L6.94136739,13.259375 Z M6.07169348,14.397962 L3.40378043,19.3069293 L8.91628043,17.6860054 L6.07169348,14.397962 Z M1.98080217,21.1506793 C1.7712587,21.1506793 1.56993261,21.0596467 1.43434565,20.8938859 C1.25493261,20.6751359 1.22617174,20.370788 1.36038913,20.1235054 L5.31843261,12.8422554 C5.36088913,12.7648098 5.4170413,12.696875 5.48141087,12.6425272 L5.48141087,12.6411685 C5.48141087,12.6411685 5.48278043,12.6411685 5.48415,12.6398098 C5.48551957,12.6398098 5.4882587,12.6411685 5.48551957,12.6384511 C5.4882587,12.6398098 5.4882587,12.6357337 5.4882587,12.6357337 C5.4882587,12.6357337 5.4882587,12.634375 5.49099783,12.634375 L5.49099783,12.6330163 L5.49236739,12.6330163 L19.2838891,1.41019022 C19.5797152,1.17105978 20.015237,1.20774457 20.2658674,1.49578804 L24.4827587,6.37214674 C24.60465,6.51480978 24.6649109,6.70095109 24.6484761,6.88709239 C24.6334109,7.07459239 24.5402804,7.24714674 24.393737,7.36671196 L10.6063239,18.5868207 C10.5981065,18.5922554 10.5898891,18.5990489 10.5803022,18.6058424 L10.5789326,18.6058424 L10.5789326,18.6072011 C10.5063457,18.6601902 10.4269109,18.6995924 10.3433674,18.7213315 L2.1807587,21.1235054 C2.11501957,21.1425272 2.0465413,21.1506793 1.98080217,21.1506793 Z" id="Fill-1" fill="#FFFFFF" mask="url(#mask-2)"></path>
                            </g>
                            <g id="Group-6">
                                <mask id="mask-4" fill="white">
                                    <use xlink:href="#path-3"></use>
                                </mask>
                                <g id="Clip-5"></g>
                                <path d="M20.0859065,32.6088315 L2.70749348,32.6088315 C1.21466739,32.6088315 -0.000136956522,31.4213315 -0.000136956522,29.9634511 L-0.000136956522,2.63192935 C-0.000136956522,1.18084239 1.21466739,0.000135869565 2.70749348,0.000135869565 L20.0859065,0.000135869565 C21.5787326,0.000135869565 22.7921674,1.18084239 22.7921674,2.63192935 L22.7921674,5.51915761 C22.7921674,6.1142663 22.3059717,6.59660326 21.7047326,6.59660326 C21.1034935,6.59660326 20.6172978,6.1142663 20.6172978,5.51915761 L20.6172978,2.63192935 C20.6172978,2.37105978 20.3789935,2.15774457 20.0859065,2.15774457 L2.70749348,2.15774457 C2.41440652,2.15774457 2.17610217,2.37105978 2.17610217,2.63192935 L2.17610217,29.9634511 C2.17610217,30.2365489 2.40892826,30.4525815 2.70749348,30.4525815 L20.0859065,30.4525815 C20.3789935,30.4525815 20.6172978,30.2338315 20.6172978,29.9634511 L20.6172978,22.1998641 C20.6172978,21.6047554 21.1034935,21.1224185 21.7047326,21.1224185 C22.3059717,21.1224185 22.7921674,21.6047554 22.7921674,22.1998641 L22.7921674,29.9634511 C22.7921674,31.4213315 21.5787326,32.6088315 20.0859065,32.6088315" id="Fill-4" fill="#FFFFFF" mask="url(#mask-4)"></path>
                            </g>
                        </g>
                    </g>
                </g>
            </g>
        </g>
    </g>
</svg>