<?xml version="1.0" encoding="UTF-8"?>
<svg width="35px" height="35px" viewBox="0 0 35 35" version="1.1" xmlns="http://www.w3.org/2000/svg" xmlns:xlink="http://www.w3.org/1999/xlink">
    <!-- Generator: Sketch 49.3 (51167) - http://www.bohemiancoding.com/sketch -->
    <title>mundinho</title>
    <desc>Created with Sketch.</desc>
    <defs>
        <path d="M0.217264153,2.15013222 C0.217264153,3.25760832 1.11652067,4.15341664 2.22285546,4.15341664 C3.33110763,4.15341664 4.22844676,3.25760832 4.22844676,2.15013222 C4.22844676,1.04643589 3.33110763,0.144957901 2.22285546,0.144957901 C1.11652067,0.144957901 0.217264153,1.04643589 0.217264153,2.15013222 Z M3.84113372,6.16237074 C3.84113372,7.26417718 4.74039024,8.16187539 5.84672502,8.16187539 C6.95114241,8.16187539 7.85039894,7.26417718 7.85039894,6.16237074 C7.85039894,5.05867442 6.95114241,4.15719643 5.84672502,4.15719643 C4.74039024,4.15719643 3.84113372,5.05867442 3.84113372,6.16237074 Z M5.90808154,11.2915348 C5.90808154,12.3990109 6.80542067,13.2948193 7.90983807,13.2948193 C9.01809024,13.2948193 9.91734676,12.3990109 9.91734676,11.2915348 C9.91734676,10.1916183 9.01809024,9.29203019 7.90983807,9.29203019 C6.80542067,9.29203019 5.90808154,10.1916183 5.90808154,11.2915348 Z" id="path-1"></path>
        <path d="M9.23607391,15.8713043 L1.22329565,15.8713043 C0.546456522,15.8713043 0,16.4174828 0,17.0940638 C0,17.7649751 0.546456522,18.3168233 1.22329565,18.3168233 L9.2399087,18.3168233 C9.64447826,26.2959429 13.8704087,34.0180374 16.9497391,34.0180374 C19.9466217,34.0180374 24.9030783,26.1088437 24.9030783,17.0940638 C24.9030783,8.3703271 20.4202174,0.162530623 16.9497391,0.162530623 C13.7266043,0.162530623 9.6138,7.62193027 9.23607391,15.8713043 Z M16.9363174,2.60237986 C18.0234783,2.73467223 22.0461652,7.92620272 22.4296435,15.8713043 L11.6826652,15.8713043 C12.0450522,8.26071342 15.7015174,2.76491049 16.9363174,2.60237986 Z M22.4238913,18.3168233 C22.0269913,25.7195262 18.1270174,31.1057154 16.9516565,31.5630691 C15.7839652,31.1019357 12.0584739,25.8348095 11.6826652,18.3168233 L22.4238913,18.3168233 C22.4238913,18.3168233 22.4238913,18.3168233 22.4238913,18.3168233 Z" id="path-3"></path>
        <path d="M9.23607391,15.8713043 L1.22329565,15.8713043 C0.546456522,15.8713043 0,16.4174828 0,17.0940638 C0,17.7649751 0.546456522,18.3168233 1.22329565,18.3168233 L9.2399087,18.3168233 C9.64447826,26.2959429 13.8704087,34.0180374 16.9497391,34.0180374 C19.9466217,34.0180374 24.9030783,26.1088437 24.9030783,17.0940638 C24.9030783,8.3703271 20.4202174,0.162530623 16.9497391,0.162530623 C13.7266043,0.162530623 9.6138,7.62193027 9.23607391,15.8713043 Z M16.9363174,2.60237986 C18.0234783,2.73467223 22.0461652,7.92620272 22.4296435,15.8713043 L11.6826652,15.8713043 C12.0450522,8.26071342 15.7015174,2.76491049 16.9363174,2.60237986 Z M11.6826652,18.3168233 L22.4238913,18.3168233 C22.0269913,25.7195262 18.1270174,31.1057154 16.9516565,31.5630691 C15.7839652,31.1019357 12.0584739,25.8348095 11.6826652,18.3168233 Z" id="path-5"></path>
        <path d="M16.9497391,34.0180374 C25.3364087,34.0180374 32.5534696,27.7719478 33.7307478,19.4904456 C33.8227826,18.8214241 33.3587739,18.2034298 32.6896043,18.1089353 C32.0376913,18.0163306 31.4049522,18.477464 31.3071652,19.1464854 C30.3005348,26.2335765 24.1265348,31.5781882 16.9497391,31.5781882 C8.95038261,31.5781882 2.4465913,25.0769633 2.4465913,17.0940638 C2.4465913,9.1017149 8.95038261,2.60237986 16.9497391,2.60237986 C17.6227435,2.60237986 18.1711174,2.05620137 18.1711174,1.38340019 C18.1711174,0.708709113 17.6227435,0.162530623 16.9497391,0.162530623 C7.60245652,0.162530623 0,7.75611253 0,17.0940638 C0,26.4244555 7.60245652,34.0180374 16.9497391,34.0180374 Z" id="path-7"></path>
    </defs>
    <g id="Symbols" stroke="none" stroke-width="1" fill="none" fill-rule="evenodd">
        <g id="BANNER_PRINCIPAL" transform="translate(-501.000000, -239.000000)">
            <g id="Banner">
                <g id="2" transform="translate(429.000000, 226.000000)">
                    <g id="icon" transform="translate(60.000000, 0.000000)">
                        <g id="mundinho" transform="translate(11.739130, 13.043478)">
                            <path d="M27.373727,7.10850505 C26.2673922,7.10850505 25.3681357,6.21080684 25.3681357,5.10333073 C25.3681357,3.99963441 26.2673922,3.10004631 27.373727,3.10004631 C28.4800617,3.10004631 29.3793183,3.99963441 29.3793183,5.10333073 C29.3793183,6.21080684 28.4800617,7.10850505 27.373727,7.10850505 M30.9975965,11.1169638 C29.8893443,11.1169638 28.9920052,10.2192656 28.9920052,9.11556926 C28.9920052,8.01376282 29.8893443,7.11228483 30.9975965,7.11228483 C32.1020139,7.11228483 33.0012704,8.01376282 33.0012704,9.11556926 C33.0012704,10.2192656 32.1020139,11.1169638 30.9975965,11.1169638 M33.0607096,16.2517976 C31.9562922,16.2517976 31.0570357,15.3540993 31.0570357,14.2466232 C31.0570357,13.1467067 31.9562922,12.2471186 33.0607096,12.2471186 C34.1689617,12.2471186 35.0682183,13.1467067 35.0682183,14.2466232 C35.0682183,15.3540993 34.1689617,16.2517976 33.0607096,16.2517976" id="Fill-1" fill="#FFFFFF"></path>
                            <g id="Group-6" transform="translate(25.150488, 2.955088)">
                                <mask id="mask-2" fill="white">
                                    <use xlink:href="#path-1"></use>
                                </mask>
                                <g id="Clip-4"></g>
                                <polygon id="Fill-3" fill="#FFFFFF" mask="url(#mask-2)" points="-1.43744454 15.0165099 10.0669033 15.0165099 10.0669033 -0.102617816 -1.43744454 -0.102617816"></polygon>
                                <polygon id="Fill-5" fill="#FFFFFF" mask="url(#mask-2)" points="-9.36969237 22.746164 19.5043033 22.746164 19.5043033 -9.30449694 -9.36969237 -9.30449694"></polygon>
                            </g>
                            <path d="M12.388547,16.2185355 L23.1336078,16.2185355 C22.7501296,8.27154395 18.72936,3.08190335 17.6402817,2.94961098 C16.4073991,3.11025172 12.7490165,8.60794454 12.388547,16.2185355 Z M12.388547,18.6621645 C12.7624383,26.1801508 16.4879296,31.4491668 17.6556209,31.9103002 C18.8309817,31.4529466 22.732873,26.0667573 23.129773,18.6621645 L12.388547,18.6621645 Z M17.6537035,34.3652685 C14.574373,34.3652685 10.3484426,26.643174 9.94579043,18.6621645 L1.92726,18.6621645 C1.25042087,18.6621645 0.703964348,18.1122062 0.703964348,17.439405 C0.703964348,16.764714 1.25042087,16.2185355 1.92726,16.2185355 L9.94195565,16.2185355 C10.3196817,7.96916139 14.4305687,0.507871854 17.6537035,0.507871854 C21.1260991,0.507871854 25.60896,8.71755822 25.60896,17.439405 C25.60896,26.454185 20.6505861,34.3652685 17.6537035,34.3652685 Z" id="Fill-7" fill="#FFFFFF"></path>
                            <g id="Group-11" transform="translate(0.704348, 0.346475)">
                                <mask id="mask-4" fill="white">
                                    <use xlink:href="#path-3"></use>
                                </mask>
                                <g id="Clip-10"></g>
                                <polygon id="Fill-9" fill="#FFFFFF" mask="url(#mask-4)" points="0 34.6341419 24.926087 34.6341419 24.926087 -1.27378651 0 -1.27378651"></polygon>
                            </g>
                            <g id="Group-14" transform="translate(0.704348, 0.346475)">
                                <mask id="mask-6" fill="white">
                                    <use xlink:href="#path-5"></use>
                                </mask>
                                <g id="Clip-13"></g>
                                <polygon id="Fill-12" fill="#FFFFFF" mask="url(#mask-6)" points="-9.58695652 43.4674923 34.4900348 43.4674923 34.4900348 -9.28692422 -9.58695652 -9.28692422"></polygon>
                            </g>
                            <path d="M0.704156087,17.44035 C0.704156087,8.10239871 8.30661261,0.508816799 17.6538952,0.508816799 C18.328817,0.508816799 18.8752735,1.05499529 18.8752735,1.72968636 C18.8752735,2.40248755 18.328817,2.94866604 17.6538952,2.94866604 C9.6545387,2.94866604 3.15074739,9.44800108 3.15074739,17.44035 C3.15074739,25.4251393 9.6545387,31.9244744 17.6538952,31.9244744 C24.8306909,31.9244744 31.0046909,26.5798627 32.0113213,19.4927716 C32.1091083,18.8237502 32.7418474,18.3626168 33.3937604,18.4552214 C34.0648474,18.5516059 34.5288561,19.1677103 34.4349039,19.8367317 C33.2576257,28.1182339 26.0405648,34.3643236 17.6538952,34.3643236 C8.30661261,34.3643236 0.704156087,26.7707417 0.704156087,17.44035 Z" id="Fill-15" fill="#FFFFFF"></path>
                            <g id="Group-20" transform="translate(0.704348, 0.346475)">
                                <mask id="mask-8" fill="white">
                                    <use xlink:href="#path-7"></use>
                                </mask>
                                <g id="Clip-18"></g>
                                <polygon id="Fill-17" fill="#FFFFFF" mask="url(#mask-8)" points="0 34.6341419 34.5130435 34.6341419 34.5130435 -1.27378651 0 -1.27378651"></polygon>
                                <polygon id="Fill-19" fill="#FFFFFF" mask="url(#mask-8)" points="-9.58695652 43.4674923 43.3292087 43.4674923 43.3292087 -9.28692422 -9.58695652 -9.28692422"></polygon>
                            </g>
                        </g>
                    </g>
                </g>
            </g>
        </g>
    </g>
</svg>