<?xml version="1.0" encoding="UTF-8"?>
<svg width="26px" height="34px" viewBox="0 0 26 34" version="1.1" xmlns="http://www.w3.org/2000/svg" xmlns:xlink="http://www.w3.org/1999/xlink">
    <!-- Generator: Sketch 49.3 (51167) - http://www.bohemiancoding.com/sketch -->
    <title>$</title>
    <desc>Created with Sketch.</desc>
    <defs>
        <polygon id="path-1" points="0 0.190635238 25.7554987 0.190635238 25.7554987 33.0704834 0 33.0704834"></polygon>
    </defs>
    <g id="Symbols" stroke="none" stroke-width="1" fill="none" fill-rule="evenodd">
        <g id="BANNER_PRINCIPAL" transform="translate(-278.000000, -239.000000)">
            <g id="Banner">
                <g id="1" transform="translate(222.000000, 226.000000)">
                    <g id="icon" transform="translate(39.000000, 0.000000)">
                        <g id="$" transform="translate(16.956522, 13.043478)">
                            <g id="Group-3" transform="translate(0.000000, 0.651925)">
                                <mask id="mask-2" fill="white">
                                    <use xlink:href="#path-1"></use>
                                </mask>
                                <g id="Clip-2"></g>
                                <path d="M23.7326854,29.1190331 C23.7326854,30.1840892 22.8196419,31.0542431 21.6979028,31.0542431 L4.05544757,31.0419658 C2.93217391,31.0419658 2.01759591,30.1733466 2.01759591,29.1067558 L2.01759591,4.14392716 C2.01759591,3.07733637 2.93217391,2.2087171 4.05544757,2.2087171 L15.5705371,2.2087171 L15.5705371,9.10242336 C15.5705371,9.65797137 16.0232225,10.1091623 16.5802558,10.1091623 L23.7326854,10.1091623 L23.7326854,29.1190331 Z M17.5884399,3.57917117 L22.2534015,8.09414976 L17.5884399,8.09414976 L17.5884399,3.57917117 Z M25.4482864,8.37499309 L17.2815345,0.473013233 C17.2753964,0.469943906 17.2707928,0.463805254 17.2646547,0.459201265 C17.2646547,0.459201265 17.2631202,0.459201265 17.2615857,0.457666602 L17.2600512,0.453062613 L17.2585166,0.453062613 C17.0897187,0.299596312 16.8687468,0.204447205 16.624757,0.190635238 C16.6078772,0.190635238 16.5894629,0.193704564 16.5725831,0.190635238 L4.05544757,0.190635238 C1.81964194,0.190635238 -0.000306905371,1.96624035 -0.000306905371,4.14392716 L-0.000306905371,29.1067558 C-0.000306905371,31.2859772 1.81964194,33.0569784 4.05544757,33.0569784 L21.6979028,33.0707903 C23.9321739,33.0707903 25.7505882,31.2982545 25.7505882,29.1190331 L25.7505882,9.20371112 C25.7812788,8.90138251 25.6738619,8.59444991 25.4482864,8.37499309 Z" id="Fill-1" fill="#FFFFFF" mask="url(#mask-2)"></path>
                            </g>
                            <path d="M12.8785166,15.8107423 C13.9404092,15.8107423 14.8365729,16.4399542 14.8365729,17.1858004 C14.8365729,17.7413484 15.2892583,18.1925393 15.8462916,18.1925393 C16.4033248,18.1925393 16.8544757,17.7413484 16.8544757,17.1858004 C16.8544757,15.6143055 15.5900256,14.3037033 13.8882353,13.9200375 L13.8882353,13.1266167 C13.8882353,12.5710687 13.4355499,12.1198778 12.8785166,12.1198778 C12.3214834,12.1198778 11.868798,12.5710687 11.868798,13.1266167 L11.868798,13.9200375 C10.1670077,14.3037033 8.90255754,15.6143055 8.90255754,17.1858004 C8.90255754,19.1041292 10.7424552,19.8192821 12.2217391,20.3932461 L12.8263427,20.6280495 C14.2242967,21.1713202 14.8365729,21.4598369 14.8365729,21.9478597 C14.8365729,22.6921713 13.9404092,23.3229178 12.8785166,23.3229178 C11.816624,23.3229178 10.9204604,22.6921713 10.9204604,21.9478597 C10.9204604,21.3892424 10.4677749,20.9395861 9.91074169,20.9395861 C9.35370844,20.9395861 8.90255754,21.3892424 8.90255754,21.9478597 C8.90255754,23.51782 10.1670077,24.8314915 11.868798,25.2151573 L11.868798,26.1850643 C11.868798,26.7406123 12.3214834,27.1933379 12.8785166,27.1933379 C13.4355499,27.1933379 13.8882353,26.7406123 13.8882353,26.1850643 L13.8882353,25.2151573 C15.5900256,24.8314915 16.8544757,23.51782 16.8544757,21.9478597 C16.8544757,20.029531 15.102046,19.3481406 13.5567775,18.7480873 L12.9521739,18.5117492 C11.7245524,18.034469 10.9204604,17.6845659 10.9204604,17.1858004 C10.9204604,16.4399542 11.816624,15.8107423 12.8785166,15.8107423" id="Fill-4" fill="#FFFFFF"></path>
                        </g>
                    </g>
                </g>
            </g>
        </g>
    </g>
</svg>