<?xml version="1.0" encoding="UTF-8" standalone="no"?>
<svg width="15px" height="18px" viewBox="0 0 15 18" version="1.1" xmlns="http://www.w3.org/2000/svg" xmlns:xlink="http://www.w3.org/1999/xlink">
    <!-- Generator: Sketch 49 (51002) - http://www.bohemiancoding.com/sketch -->
    <title>icon</title>
    <desc>Created with Sketch.</desc>
    <defs>
        <polygon id="path-1" points="0.699095329 0.691384758 13.49925 0.691384758 13.49925 11.6751 0.699095329 11.6751"></polygon>
    </defs>
    <g id="desktop" stroke="none" stroke-width="1" fill="none" fill-rule="evenodd">
        <g id="[Suggest-II]-Regionalização-Vivo-Controle" transform="translate(-1080.000000, -550.000000)">
            <g id="Bullets" transform="translate(216.000000, 463.000000)">
                <g id="03" transform="translate(798.000000, 80.000000)">
                    <g id="icon" transform="translate(66.000000, 7.000000)">
                        <g id="Group-3" transform="translate(1.500000, 3.750000)">
                            <mask id="mask-2" fill="white">
                                <use xlink:href="#path-1"></use>
                            </mask>
                            <g id="Clip-2"></g>
                            <path d="M3.801225,7.3191 L5.609475,9.42585 L12.564975,3.71985 L10.757475,1.6131 L3.801225,7.3191 Z M3.324975,7.9476 L1.863975,10.65735 L4.882725,9.7626 L3.324975,7.9476 Z M1.084725,11.6751 C0.969975,11.6751 0.859725,11.62485 0.785475,11.53335 C0.687225,11.4126 0.671475,11.2446 0.744975,11.1081 L2.912475,7.08885 C2.935725,7.0461 2.966475,7.0086 3.001725,6.9786 L3.001725,6.97785 C3.001725,6.97785 3.002475,6.97785 3.003225,6.9771 C3.003975,6.9771 3.005475,6.97785 3.003975,6.97635 C3.005475,6.9771 3.005475,6.97485 3.005475,6.97485 C3.005475,6.97485 3.005475,6.9741 3.006975,6.9741 L3.006975,6.97335 L3.007725,6.97335 L10.560225,0.77835 C10.722225,0.64635 10.960725,0.6666 11.097975,0.8256 L13.407225,3.51735 C13.473975,3.5961 13.506975,3.69885 13.497975,3.8016 C13.489725,3.9051 13.438725,4.00035 13.358475,4.06635 L5.808225,10.25985 C5.803725,10.26285 5.799225,10.2666 5.793975,10.27035 L5.793225,10.27035 L5.793225,10.2711 C5.753475,10.30035 5.709975,10.3221 5.664225,10.3341 L1.194225,11.6601 C1.158225,11.6706 1.120725,11.6751 1.084725,11.6751 Z" id="Fill-1" fill="#FEFEFE" mask="url(#mask-2)"></path>
                        </g>
                        <path d="M10.9995,18 L1.48275,18 C0.66525,18 0,17.3445 0,16.53975 L0,1.45275 C0,0.65175 0.66525,0 1.48275,0 L10.9995,0 C11.817,0 12.4815,0.65175 12.4815,1.45275 L12.4815,3.0465 C12.4815,3.375 12.21525,3.64125 11.886,3.64125 C11.55675,3.64125 11.2905,3.375 11.2905,3.0465 L11.2905,1.45275 C11.2905,1.30875 11.16,1.191 10.9995,1.191 L1.48275,1.191 C1.32225,1.191 1.19175,1.30875 1.19175,1.45275 L1.19175,16.53975 C1.19175,16.6905 1.31925,16.80975 1.48275,16.80975 L10.9995,16.80975 C11.16,16.80975 11.2905,16.689 11.2905,16.53975 L11.2905,12.25425 C11.2905,11.92575 11.55675,11.6595 11.886,11.6595 C12.21525,11.6595 12.4815,11.92575 12.4815,12.25425 L12.4815,16.53975 C12.4815,17.3445 11.817,18 10.9995,18" id="Fill-4" fill="#FEFEFE"></path>
                    </g>
                </g>
            </g>
        </g>
    </g>
</svg>