<?xml version="1.0" encoding="UTF-8" standalone="no"?>
<svg width="14px" height="20px" viewBox="0 0 14 20" version="1.1" xmlns="http://www.w3.org/2000/svg" xmlns:xlink="http://www.w3.org/1999/xlink">
    <!-- Generator: Sketch 49 (51002) - http://www.bohemiancoding.com/sketch -->
    <title>icon</title>
    <desc>Created with Sketch.</desc>
    <defs>
        <polygon id="path-1" points="0 0.5 13.8221176 0.5 13.8221176 19.1302609 0 19.1302609"></polygon>
    </defs>
    <g id="desktop" stroke="none" stroke-width="1" fill="none" fill-rule="evenodd">
        <g id="Regionalização-Vivo-Controle" transform="translate(-548.000000, -502.000000)">
            <g id="Bullets" transform="translate(0.000000, 416.000000)">
                <g id="01" transform="translate(496.000000, 80.000000)">
                    <g id="icon" transform="translate(52.000000, 6.000000)">
                        <g id="Group-3">
                            <mask id="mask-2" fill="white">
                                <use xlink:href="#path-1"></use>
                            </mask>
                            <g id="Clip-2"></g>
                            <path d="M12.7366235,16.8911304 C12.7366235,17.4946087 12.2466235,17.9876522 11.6446235,17.9876522 L2.17650588,17.9806957 C1.57368235,17.9806957 1.08285882,17.4885217 1.08285882,16.8850435 L1.08285882,2.74069565 C1.08285882,2.13547826 1.57368235,1.64330435 2.17650588,1.64330435 L8.35627059,1.64330435 L8.35627059,5.5493913 C8.35627059,5.86417391 8.59921176,6.11982609 8.89815294,6.11982609 L12.7366235,6.11982609 L12.7366235,16.8911304 Z M9.43921176,2.41982609 L11.9427412,4.97808696 L9.43921176,4.97808696 L9.43921176,2.41982609 Z M13.6573294,5.13721739 L9.27450588,0.660695652 C9.27121176,0.658086957 9.26874118,0.654608696 9.26544706,0.652 C9.26544706,0.652 9.26462353,0.652 9.2638,0.651130435 L9.26297647,0.649391304 C9.26297647,0.648521739 9.26297647,0.648521739 9.26215294,0.648521739 C9.17156471,0.561565217 9.05297647,0.507652174 8.92203529,0.499826087 C8.91297647,0.499826087 8.90309412,0.501565217 8.89403529,0.499826087 L2.17650588,0.499826087 C0.976623529,0.499826087 -8.23529412e-05,1.50591304 -8.23529412e-05,2.74069565 L-8.23529412e-05,16.8850435 C-8.23529412e-05,18.1189565 0.976623529,19.1224348 2.17650588,19.1224348 L11.6446235,19.1302609 C12.8436824,19.1302609 13.8195647,18.125913 13.8195647,16.8911304 L13.8195647,5.60678261 C13.8360353,5.43634783 13.7783882,5.26243478 13.6573294,5.13721739 Z" id="Fill-1" fill="#FEFEFE" mask="url(#mask-2)"></path>
                        </g>
                        <path d="M7,9.20372633 C7.5341567,9.20372633 7.9849479,9.57941356 7.9849479,10.0247404 C7.9849479,10.3564447 8.2126592,10.62584 8.4928599,10.62584 C8.77306059,10.62584 9,10.3564447 9,10.0247404 C9,9.08643861 8.36395214,8.30390959 7.507912,8.07483201 L7.507912,7.60201588 C7.507912,7.26939524 7.28020069,7 7,7 C6.71979931,7 6.492088,7.26939524 6.492088,7.60201588 L6.492088,8.07483201 C5.63604786,8.30390959 5,9.08643861 5,10.0247404 C5,11.1701283 5.92551139,11.5971289 6.66962563,11.939829 L6.97375531,12.0809407 C7.6769587,12.4043983 7.9849479,12.5766646 7.9849479,12.8680513 C7.9849479,13.3124618 7.5341567,13.6890654 7,13.6890654 C6.4658433,13.6890654 6.0150521,13.3124618 6.0150521,12.8680513 C6.0150521,12.5354307 5.7873408,12.2660354 5.5071401,12.2660354 C5.22693941,12.2660354 5,12.5354307 5,12.8680513 C5,13.8063531 5.63604786,14.5897984 6.492088,14.818876 L6.492088,15.3979841 C6.492088,15.7306048 6.71979931,16 7,16 C7.28020069,16 7.507912,15.7306048 7.507912,15.3979841 L7.507912,14.818876 C8.36395214,14.5897984 9,13.8063531 9,12.8680513 C9,11.7226634 8.11848707,11.3158216 7.34118101,10.9575443 L7.03705133,10.8173488 C6.41952914,10.53146 6.0150521,10.3225412 6.0150521,10.0247404 C6.0150521,9.57941356 6.4658433,9.20372633 7,9.20372633" id="Fill-4" fill="#FEFEFE"></path>
                    </g>
                </g>
            </g>
        </g>
    </g>
</svg>