<?xml version="1.0" encoding="UTF-8"?>
<svg width="33px" height="35px" viewBox="0 0 33 35" version="1.1" xmlns="http://www.w3.org/2000/svg" xmlns:xlink="http://www.w3.org/1999/xlink">
    <!-- Generator: Sketch 52.2 (67145) - http://www.bohemiancoding.com/sketch -->
    <title>Group 5</title>
    <desc>Created with Sketch.</desc>
    <defs>
        <path d="M13.97825,1.39868421 C13.97825,1.97236842 14.465,2.43684211 15.065875,2.43684211 C23.71325,2.43684211 30.749125,9.16578947 30.749125,17.4381579 C30.749125,18.0131579 31.235875,18.4776316 31.835375,18.4776316 C32.43625,18.4776316 32.921625,18.0131579 32.921625,17.4381579 C32.921625,8.01973684 24.910875,0.357894737 15.065875,0.357894737 C14.465,0.357894737 13.97825,0.823684211 13.97825,1.39868421 Z M13.959,7.75526316 C13.959,8.33026316 14.443,8.79605263 15.043875,8.79605263 C19.94025,8.79605263 23.923625,12.6065789 23.923625,17.2907895 C23.923625,17.8644737 24.410375,18.3315789 25.009875,18.3315789 C25.61075,18.3315789 26.0975,17.8644737 26.0975,17.2907895 C26.0975,11.4578947 21.13925,6.71578947 15.043875,6.71578947 C14.443,6.71578947 13.959,7.18157895 13.959,7.75526316 Z M0.8195,15.8381579 C0.27225,16.4184211 0,16.9263158 0,17.3592105 C0,17.4618421 0.053625,17.5328947 0.16225,17.5697368 L1.10825,17.9118421 L1.269125,17.9539474 C1.48775,17.6236842 1.709125,17.2881579 1.937375,16.9486842 C2.19175,16.6473684 2.541,16.4960526 2.985125,16.4960526 C3.359125,16.4960526 3.6575,16.5986842 3.872,16.8065789 C4.087875,17.0131579 4.1965,17.3197368 4.1965,17.7236842 C4.1965,18.3263158 3.6135,19.1394737 2.437875,20.1605263 C1.265,21.1815789 0.603625,21.8421053 0.449625,22.1447368 C0.297,22.4460526 0.19525,22.7078947 0.138875,22.9342105 C0.08525,23.1605263 0.0605,23.6513158 0.0605,24.4039474 C0.0605,24.5644737 0.122375,24.6447368 0.25025,24.6447368 L5.586625,24.6447368 C5.71725,24.6447368 5.795625,24.6263158 5.831375,24.5947368 C5.86575,24.5618421 5.88225,24.4802632 5.88225,24.3473684 L5.88225,23.3144737 C5.88225,23.1539474 5.864375,23.0657895 5.823125,23.0460526 C5.784625,23.0263158 5.704875,23.0157895 5.586625,23.0157895 L2.11475,23.0157895 C2.14225,22.7263158 2.226125,22.4723684 2.35675,22.2618421 C2.490125,22.05 2.99475,21.5973684 3.872,20.9065789 C4.750625,20.2157895 5.319875,19.6789474 5.581125,19.3039474 C5.841,18.9276316 5.971625,18.3763158 5.971625,17.6513158 C5.971625,16.7855263 5.726875,16.1210526 5.23325,15.6605263 C4.739625,15.1986842 4.049375,14.9671053 3.163875,14.9671053 C2.14775,14.9671053 1.368125,15.2578947 0.8195,15.8381579 Z M11.055,15.1815789 C10.9395,15.1815789 10.85975,15.1934211 10.819875,15.225 C10.78,15.2552632 10.75525,15.3328947 10.747,15.4618421 L10.289125,20.1171053 L10.272625,20.2578947 C10.272625,20.3355263 10.352375,20.3960526 10.509125,20.4434211 L11.396,20.7118421 L11.559625,20.7539474 C11.7865,20.575 12.013375,20.3960526 12.238875,20.2171053 C12.505625,20.0671053 12.835625,19.9894737 13.23025,19.9894737 C13.7225,19.9894737 14.095125,20.125 14.345375,20.3947368 C14.598375,20.6618421 14.7235,21.0171053 14.7235,21.4618421 C14.7235,22.0184211 14.52825,22.4723684 14.1405,22.8263158 C13.748625,23.1802632 13.211,23.3578947 12.52075,23.3578947 C12.225125,23.3578947 11.89375,23.3144737 11.53075,23.2289474 C11.165,23.1447368 10.825375,23.0460526 10.509125,22.9315789 C10.440375,22.9315789 10.395,22.9736842 10.377125,23.0605263 L10.170875,24.0934211 L10.15575,24.2473684 C10.15575,24.4263158 10.421125,24.5789474 10.951875,24.7 C11.484,24.8236842 12.032625,24.8855263 12.595,24.8855263 C13.78575,24.8855263 14.7235,24.5644737 15.404125,23.9236842 C16.083375,23.2802632 16.423,22.4513158 16.423,21.4342105 C16.423,20.6039474 16.17,19.9065789 15.662625,19.3460526 C15.156625,18.7855263 14.4705,18.5039474 13.602875,18.5039474 C13.228875,18.5039474 12.93325,18.5447368 12.717375,18.625 C12.500125,18.7039474 12.29525,18.8065789 12.098625,18.9302632 L12.35025,16.6671053 L15.389,16.6671053 C15.5265,16.6671053 15.613125,16.6486842 15.6475,16.6144737 C15.6805,16.5842105 15.698375,16.5013158 15.698375,16.3697368 L15.698375,15.4618421 C15.698375,15.3421053 15.6805,15.2618421 15.6475,15.2302632 C15.613125,15.1973684 15.5265,15.1815789 15.389,15.1815789 L11.055,15.1815789 Z M7.12525,22.5934211 C6.8475,22.8565789 6.71,23.1723684 6.71,23.5394737 C6.71,23.9263158 6.8475,24.2486842 7.12525,24.5026316 C7.40025,24.7552632 7.731625,24.8842105 8.113875,24.8842105 C8.50025,24.8842105 8.828875,24.7513158 9.106625,24.4881579 C9.38025,24.225 9.51775,23.9092105 9.51775,23.5394737 C9.51775,23.1631579 9.383,22.8447368 9.1135,22.5855263 C8.842625,22.3276316 8.5085,22.1960526 8.113875,22.1960526 C7.731625,22.1960526 7.40025,22.3289474 7.12525,22.5934211 Z" id="path-1"></path>
    </defs>
    <g id="Desktop" stroke="none" stroke-width="1" fill="none" fill-rule="evenodd">
        <g id="Desktop_conversao" transform="translate(-694.000000, -3611.000000)">
            <g id="4G" transform="translate(71.000000, 3505.000000)">
                <g id="2.5GHz" transform="translate(620.000000, 106.000000)">
                    <g id="Group-5" transform="translate(3.000000, 0.000000)">
                        <g id="Group-3">
                            <mask id="mask-2" fill="white">
                                <use xlink:href="#path-1"></use>
                            </mask>
                            <g id="Clip-2"></g>
                            <polygon id="Fill-1" fill="#020303" mask="url(#mask-2)" points="-6.875 31.4644737 39.796625 31.4644737 39.796625 -6.22105263 -6.875 -6.22105263"></polygon>
                        </g>
                        <text id="GHz" font-family="OfficinaSerif-Bold, ITC Officina Serif" font-size="10" font-weight="bold" fill="#231F20">
                            <tspan x="0" y="33.5">GHz</tspan>
                        </text>
                    </g>
                </g>
            </g>
        </g>
    </g>
</svg>