<?xml version="1.0" encoding="UTF-8"?>
<svg width="32px" height="25px" viewBox="0 0 32 25" version="1.1" xmlns="http://www.w3.org/2000/svg" xmlns:xlink="http://www.w3.org/1999/xlink">
    <!-- Generator: Sketch 52.2 (67145) - http://www.bohemiancoding.com/sketch -->
    <title>Combined Shape</title>
    <desc>Created with Sketch.</desc>
    <defs>
        <path d="M9,18 L9,21 L6,21 L9,18 Z M11.1077339,20.5100408 L12.1033926,20.5100408 C12.5973628,20.5100408 13,20.9190505 13,21.4221454 C13,21.9239336 12.5973628,22.3329433 12.1033926,22.3329433 L11.1077339,22.3329433 L11.1077339,24.0892021 C11.1077339,24.5909903 10.706383,25 10.2111264,25 C9.71586984,25 9.31451903,24.5909903 9.31451903,24.0892021 L9.31451903,22.3329433 L5.22640087,22.3329433 C4.72985788,22.3329433 4.28477013,22.0297796 4.09309939,21.5632734 C3.90400141,21.0980739 4.00819826,20.5649239 4.35809383,20.2081838 L9.14857591,15.3444969 C9.47660301,15.0060512 9.96928685,14.9067389 10.4002244,15.092296 C10.8298756,15.2726262 11.1077339,15.69601 11.1077339,16.1677432 L11.1077339,20.5100408 Z M18.089497,0 C27.9653045,0 36,7.61121197 36,16.9673953 C36,17.5385956 35.5131741,18 34.910503,18 C34.309211,18 33.821006,17.5385956 33.821006,16.9673953 C33.821006,8.75099848 26.7640996,2.06651659 18.089497,2.06651659 C17.4868259,2.06651659 17,1.6038051 17,1.03391184 C17,0.462711495 17.4868259,0 18.089497,0 Z M18.9843679,6 C24.5080426,6 29,10.4912201 29,16.0142744 C29,16.5588535 28.5601495,17 28.0156321,17 C27.4723607,17 27.0312642,16.5588535 27.0312642,16.0142744 C27.0312642,11.5791322 23.4214998,7.97020505 18.9843679,7.97020505 C18.4398505,7.97020505 18,7.52905857 18,6.98447944 C18,6.44114648 18.4398505,6 18.9843679,6 Z M20.084614,19.1803171 C20.5895308,19.1803171 20.9997757,19.5891757 20.9997757,20.0936968 L20.9997757,23.7629406 C20.9997757,24.1639366 20.7367982,24.5177565 20.352851,24.6343861 C19.5297314,24.8859914 18.7881349,25 17.945292,25 C14.940774,25 13,23.0225396 13,19.9600315 C13,17.1779583 15.1721942,15 17.945292,15 C18.9564405,15 19.7309092,15.1035251 20.3844083,15.3289215 C20.8617125,15.4940375 21.1141709,16.0129734 20.94981,16.4886647 C20.7841341,16.9656664 20.2634387,17.2185821 19.7848196,17.0534661 C19.3311834,16.8975233 18.7460585,16.8241384 17.945292,16.8241384 C16.1688789,16.8241384 14.8316383,18.1712751 14.8316383,19.9600315 C14.8316383,22.0017036 15.9650714,23.1732407 17.945292,23.1732407 C18.37789,23.1732407 18.7684116,23.1378587 19.1681374,23.0553007 L19.1681374,21.0070764 L17.9650153,21.0070764 C17.4600985,21.0070764 17.0485387,20.5969074 17.0485387,20.0936968 C17.0485387,19.5891757 17.4600985,19.1803171 17.9650153,19.1803171 L20.084614,19.1803171 Z" id="path-1"></path>
    </defs>
    <g id="Desktop" stroke="none" stroke-width="1" fill="none" fill-rule="evenodd">
        <g id="Desktop_conversao" transform="translate(-215.000000, -3617.000000)">
            <g id="4G" transform="translate(71.000000, 3505.000000)">
                <g transform="translate(140.000000, 112.000000)">
                    <mask id="mask-2" fill="white">
                        <use xlink:href="#path-1"></use>
                    </mask>
                    <use id="Combined-Shape" fill="#231F20" xlink:href="#path-1"></use>
                </g>
            </g>
        </g>
    </g>
</svg>