<?xml version="1.0" encoding="UTF-8"?>
<svg width="32px" height="32px" viewBox="0 0 32 32" version="1.1" xmlns="http://www.w3.org/2000/svg" xmlns:xlink="http://www.w3.org/1999/xlink">
    <!-- Generator: Sketch 52.2 (67145) - http://www.bohemiancoding.com/sketch -->
    <title>Group 3</title>
    <desc>Created with Sketch.</desc>
    <defs>
        <polygon id="path-1" points="0 0 32 0 32 32 0 32"></polygon>
    </defs>
    <g id="Desktop" stroke="none" stroke-width="1" fill="none" fill-rule="evenodd">
        <g id="Desktop_conversao" transform="translate(-935.000000, -3613.000000)">
            <g id="4G" transform="translate(71.000000, 3505.000000)">
                <g id="cobertura" transform="translate(860.000000, 108.000000)">
                    <g id="Group-3" transform="translate(4.000000, 0.000000)">
                        <mask id="mask-2" fill="white">
                            <use xlink:href="#path-1"></use>
                        </mask>
                        <g id="Clip-2"></g>
                        <path d="M9.44501173,18.6087584 C9.20860621,18.6087584 8.9722007,18.5204526 8.79421724,18.3397652 C6.93829808,16.4867011 5.91795013,14.0195716 5.91795013,11.3962088 C5.91795013,8.77556306 6.93829808,6.30843363 8.79421724,4.45672801 C9.15290147,4.09807043 9.73848064,4.09671188 10.0985235,4.45808657 C10.4585664,4.8208198 10.4585664,5.40363837 10.0971649,5.76637161 C8.59449533,7.2662124 7.76707603,9.26735868 7.76707603,11.3962088 C7.76707603,13.5291346 8.59449533,15.5275637 10.0971649,17.0341973 C10.4585664,17.3928549 10.4585664,17.977032 10.0971649,18.3397652 C9.91918141,18.5204526 9.6827759,18.6087584 9.44501173,18.6087584 M22.545138,18.6087584 C22.3087325,18.6087584 22.0696097,18.5204526 21.8889089,18.3397652 C21.5315834,17.977032 21.5315834,17.3928549 21.8902676,17.0328387 C23.3970131,15.5275637 24.2244324,13.527776 24.2244324,11.3948502 C24.2244324,9.26600013 23.3970131,7.2662124 21.8902676,5.76637161 C21.5315834,5.40363837 21.5315834,4.8208198 21.8889089,4.45808657 C22.2516691,4.09671188 22.834531,4.09807043 23.1959325,4.45672801 C25.050493,6.30843363 26.070841,8.7742045 26.0721996,11.3948502 C26.0721996,14.0195716 25.050493,16.4867011 23.1959325,18.3411238 C23.0152318,18.5204526 22.7788263,18.6087584 22.545138,18.6087584 M26.735222,22.795814 C26.4988165,22.795814 26.2610523,22.7075081 26.0803516,22.5268208 C25.7203087,22.1640875 25.7203087,21.581269 26.0803516,21.2212528 C28.7066266,18.5938143 30.1495154,15.1077713 30.1495154,11.3962088 C30.1495154,7.6887219 28.7066266,4.20267889 26.0803516,1.5779575 C25.7203087,1.21658282 25.7203087,0.633764249 26.0803516,0.271031013 C26.4403944,-0.0903436711 27.024615,-0.0903436711 27.3860165,0.271031013 C30.3628239,3.24354157 32,7.19556773 32,11.3962088 C32,15.599567 30.3628239,19.5515931 27.3860165,22.5268208 C27.2053157,22.7075081 26.9689102,22.795814 26.735222,22.795814 M5.25492777,22.795814 C5.01852225,22.795814 4.78211674,22.7075081 4.60277462,22.5268208 C-1.53425821,16.3861682 -1.53425821,6.40489079 4.60277462,0.271031013 C4.96281751,-0.0903436711 5.55111399,-0.0903436711 5.90708091,0.271031013 C6.26848245,0.633764249 6.26848245,1.21658282 5.90708091,1.5779575 C3.28488181,4.20132034 1.83791702,7.6887219 1.83927567,11.3962088 C1.83927567,15.1077713 3.28488181,18.5938143 5.90708091,21.2212528 C6.26848245,21.581269 6.26848245,22.1654461 5.90708091,22.5268208 C5.72909745,22.7075081 5.49269194,22.795814 5.25492777,22.795814 M19.1593763,32 L12.8280562,32 C12.523718,32 12.2356837,31.8464837 12.0644935,31.5937931 C11.8919447,31.3383854 11.8566197,31.0164088 11.9707465,30.731113 L13.2791288,27.4909678 C13.4720574,27.0181919 14.0087251,26.7953894 14.4828948,26.9801524 C14.9570645,27.1730667 15.1866767,27.7096945 14.9937481,28.1851875 L14.1975778,30.15237 L17.8047999,30.15237 L15.0942884,23.2332675 C15.0521701,23.125942 15.0304317,23.0118236 15.0304317,22.8963468 L15.0304317,15.3101955 C14.3796372,15.1376595 13.7845475,14.7844361 13.3293989,14.2817721 C12.0182993,12.8362733 12.1188396,10.5933049 13.5522179,9.27822709 C14.9923894,7.96179074 17.2368832,8.06232355 18.5588519,9.50646373 C19.3047521,10.3148018 19.6267527,11.4478337 19.4283895,12.5319578 C19.3332838,13.0332633 18.8482449,13.3633913 18.3509781,13.2723683 C17.8496354,13.1813454 17.5154069,12.6977011 17.6105126,12.195037 C17.7056182,11.6774289 17.5534492,11.138084 17.1974822,10.7549725 C16.5643502,10.0621113 15.4882975,10.0118449 14.7994608,10.6422127 C14.1133413,11.2712221 14.0671471,12.3471948 14.6975619,13.0386975 C15.0182038,13.3892038 15.4611245,13.5848352 15.9475221,13.5848352 C16.3985946,13.5848352 16.7844519,13.909529 16.8591778,14.3551338 C16.8673297,14.4040417 16.8795576,14.4977817 16.8795576,14.5480481 L16.8795576,22.7210936 L20.0194033,30.7406228 C20.1308128,31.0245601 20.0954878,31.3438197 19.9229389,31.5978688 C19.7517487,31.8492008 19.4650731,32 19.1593763,32" id="Fill-1" fill="#231F20" mask="url(#mask-2)"></path>
                    </g>
                </g>
            </g>
        </g>
    </g>
</svg>