<?xml version="1.0" encoding="UTF-8"?>
<svg width="30px" height="19px" viewBox="0 0 30 19" version="1.1" xmlns="http://www.w3.org/2000/svg" xmlns:xlink="http://www.w3.org/1999/xlink">
    <!-- Generator: Sketch 52.2 (67145) - http://www.bohemiancoding.com/sketch -->
    <title>Group 3</title>
    <desc>Created with Sketch.</desc>
    <defs>
        <polygon id="path-1" points="0 0 30 0 30 19 0 19"></polygon>
    </defs>
    <g id="Desktop" stroke="none" stroke-width="1" fill="none" fill-rule="evenodd">
        <g id="Desktop_conversao" transform="translate(-456.000000, -3619.000000)">
            <g id="4G" transform="translate(71.000000, 3505.000000)">
                <g id="chip_vivo" transform="translate(380.000000, 114.000000)">
                    <g id="Group-3" transform="translate(5.000000, 0.000000)">
                        <mask id="mask-2" fill="white">
                            <use xlink:href="#path-1"></use>
                        </mask>
                        <g id="Clip-2"></g>
                        <path d="M21.5390897,19 L2.12360854,19 C1.11015601,19 0.237245885,18.245463 0.0489964327,17.2056081 C-0.0515751923,16.6552559 0.292689216,16.1211302 0.820045558,16.0170095 C1.34482314,15.9115365 1.85283878,16.2739307 1.95469979,16.8256352 C1.96630421,16.8945982 2.02948382,16.9662657 2.12360854,16.9662657 L21.5390897,16.9662657 C21.9297718,16.9662657 22.2946663,16.8107608 22.5680148,16.5281475 L27.6082005,11.2355704 C27.9021791,10.9407871 28.0607728,10.547292 28.0607728,10.1375703 L28.0607728,3.56579603 C28.0607728,2.72066045 27.4057678,2.03373425 26.6024842,2.03373425 L2.11329351,2.03373425 C2.0178794,2.03373425 1.93922723,2.11892392 1.93922723,2.21763576 L1.93922723,3.68479112 C1.93922723,3.78215074 2.01916878,3.86869262 2.11329351,3.86869262 L12.2684489,3.86869262 C13.4340482,3.86869262 14.3830318,4.86392428 14.3830318,6.08632838 L14.3830318,12.7946765 C14.3830318,14.0184329 13.4340482,15.0150167 12.2684489,15.0150167 L2.12360854,15.0150167 C0.959298577,15.0150167 0.0103150385,14.0184329 0.0103150385,12.7946765 L0.0103150385,7.97943207 C0.0103150385,7.41826205 0.444836034,6.96256494 0.979928654,6.96256494 C1.51631065,6.96256494 1.95083165,7.41826205 1.95083165,7.97943207 L1.95083165,12.7946765 C1.95083165,12.8947406 2.02948382,12.9812825 2.12360854,12.9812825 L12.2684489,12.9812825 C12.3625736,12.9812825 12.4425152,12.8947406 12.4425152,12.7946765 L12.4425152,6.08632838 C12.4425152,5.98085546 12.3677311,5.90107466 12.2684489,5.90107466 L2.11329351,5.90107466 C0.946404779,5.90107466 0,4.90719522 0,3.68479112 L0,2.21763576 C0,0.995231656 0.946404779,0 2.11329351,0 L26.6024842,0 C28.4746637,0 30,1.59967262 30,3.56579603 L30,10.1375703 C30,11.0989965 29.6235011,12.0293218 28.964628,12.6878514 L23.9347574,17.9696107 C23.2913569,18.6362536 22.4429449,19 21.5390897,19" id="Fill-1" fill="#231F20" mask="url(#mask-2)"></path>
                    </g>
                </g>
            </g>
        </g>
    </g>
</svg>