<svg xmlns="http://www.w3.org/2000/svg" viewBox="0 0 102 22.756"><defs><style>.a{fill:#d9252a;}.b{fill:#fffffe;}.c{fill:#222321;}</style></defs><g transform="translate(0 -0.159)"><path class="a" d="M31.832,3.56A4.072,4.072,0,0,0,28.967.7C26.424,0,16.25,0,16.25,0S6.077,0,3.534.669A4.155,4.155,0,0,0,.669,3.56,42.907,42.907,0,0,0,0,11.378,42.75,42.75,0,0,0,.669,19.2,4.072,4.072,0,0,0,3.534,22.06c2.57.7,12.716.7,12.716.7s10.173,0,12.716-.669a4.072,4.072,0,0,0,2.865-2.865A42.9,42.9,0,0,0,32.5,11.4a40.737,40.737,0,0,0-.669-7.844" transform="translate(0 0.159)"/><path class="b" d="M0,9.745,8.46,4.873,0,0V9.745" transform="translate(13.011 6.665)"/><path class="c" d="M4.444,14.778a5.059,5.059,0,0,1-2.678-.67A3.448,3.448,0,0,1,.4,12.074,13.412,13.412,0,0,1,0,8.433V6.372A12.622,12.622,0,0,1,.455,2.678,3.8,3.8,0,0,1,1.9.643,4.7,4.7,0,0,1,4.5,0,4.528,4.528,0,0,1,7.041.643,3.717,3.717,0,0,1,8.433,2.678a12.365,12.365,0,0,1,.455,3.694V8.433A12.52,12.52,0,0,1,8.46,12.1a3.717,3.717,0,0,1-1.392,2.035A4.7,4.7,0,0,1,4.444,14.778Zm0-12.583a.937.937,0,0,0-.91.7A6.692,6.692,0,0,0,3.266,5.14V9.584a6.61,6.61,0,0,0,.268,2.276.942.942,0,0,0,.937.7.922.922,0,0,0,.91-.7,6.619,6.619,0,0,0,.267-2.276V5.14a6.7,6.7,0,0,0-.267-2.248A.928.928,0,0,0,4.444,2.2Z" transform="translate(45.431 6.772)"/><path class="c" d="M4.283,14.751a3.666,3.666,0,0,1-3.319-1.5A8.671,8.671,0,0,1,0,8.647V6.158A8.486,8.486,0,0,1,.991,1.472,3.738,3.738,0,0,1,4.364,0,4.506,4.506,0,0,1,6.908.616,3.28,3.28,0,0,1,8.139,2.489a13.635,13.635,0,0,1,.348,3.534V8.46H3.106v.776a19.308,19.308,0,0,0,.08,2.062,1.677,1.677,0,0,0,.348.99.94.94,0,0,0,.8.321,1.006,1.006,0,0,0,.991-.562,4.869,4.869,0,0,0,.294-1.874l2.758.16a2.721,2.721,0,0,1,.027.509,3.76,3.76,0,0,1-1.071,2.945A4.463,4.463,0,0,1,4.283,14.751ZM4.173,2.218a.772.772,0,0,0-.666.3,2.038,2.038,0,0,0-.321.991A19.336,19.336,0,0,0,3.106,5.6V6.612H5.461V5.6a20.033,20.033,0,0,0-.08-2.088,1.787,1.787,0,0,0-.348-.991.961.961,0,0,0-.75-.294C4.245,2.219,4.208,2.218,4.173,2.218Z" transform="translate(93.513 6.718)"/><path class="c" d="M3.641,13.2,0,0H3.186L4.471,5.97q.482,2.209.723,3.775h.08C5.381,9,5.622,7.764,6,6L7.335,0h3.186L6.827,13.2v6.318H3.668V13.2H3.641" transform="translate(35.74 1.766)"/><path class="c" d="M8.7,0V14.269H6.184l-.268-1.74h-.08A3.3,3.3,0,0,1,2.757,14.51a2.435,2.435,0,0,1-2.088-.937A4.942,4.942,0,0,1,0,10.655V0H3.213V10.468a3.263,3.263,0,0,0,.214,1.365.722.722,0,0,0,.7.4,1.373,1.373,0,0,0,.8-.268,1.3,1.3,0,0,0,.562-.642V0H8.7" transform="translate(55.98 7.039)"/><path class="c" d="M8.7,0V14.269H6.184l-.268-1.74h-.08A3.3,3.3,0,0,1,2.758,14.51a2.435,2.435,0,0,1-2.088-.937A4.944,4.944,0,0,1,0,10.655V0H3.213V10.468a3.262,3.262,0,0,0,.214,1.365.722.722,0,0,0,.7.4,1.373,1.373,0,0,0,.8-.268,1.3,1.3,0,0,0,.562-.642V0H8.7" transform="translate(72.444 7.039)"/><path class="c" d="M9.5,2.6H6.318v16.92H3.186V2.6H0V0H9.5V2.6" transform="translate(63.904 1.766)"/><path class="c" d="M5.837,20.48a3.448,3.448,0,0,1-1.661-.428A2.731,2.731,0,0,1,3.052,18.9h-.08l-.321,1.338H0V0H3.106V7.523h.026A3.289,3.289,0,0,1,4.31,6.211,2.885,2.885,0,0,1,5.971,5.7a2.562,2.562,0,0,1,1.793.616A3.626,3.626,0,0,1,8.7,8.272,20.976,20.976,0,0,1,9,12.047V14.3a10.776,10.776,0,0,1-.777,4.685A2.5,2.5,0,0,1,5.837,20.48ZM4.551,7.979a1.3,1.3,0,0,0-.857.374,2.191,2.191,0,0,0-.562.964V17.4a1.541,1.541,0,0,0,.536.563,1.329,1.329,0,0,0,.723.187,1.044,1.044,0,0,0,.8-.374,2.749,2.749,0,0,0,.428-1.259,18.633,18.633,0,0,0,.133-2.435h.027V12.208a21.183,21.183,0,0,0-.107-2.569A3.02,3.02,0,0,0,5.3,8.353.866.866,0,0,0,4.551,7.979Z" transform="translate(83.072 1.043)"/></g></svg>