<svg xmlns="http://www.w3.org/2000/svg" viewBox="0 0 24.217 24"><defs><style>.a{fill:#fff;}</style></defs><path class="a" d="M0,24v0l1.71-6.162A11.775,11.775,0,0,1,.1,11.892a12.092,12.092,0,0,1,20.587-8.4A11.743,11.743,0,0,1,24.217,11.9,11.993,11.993,0,0,1,12.159,23.793a12.2,12.2,0,0,1-5.766-1.447L0,24Zm6.688-3.807h0l.366.214a10.105,10.105,0,0,0,5.1,1.378A9.971,9.971,0,0,0,22.181,11.9a9.76,9.76,0,0,0-2.932-6.993A10.051,10.051,0,0,0,2.137,11.893a9.765,9.765,0,0,0,1.532,5.26l.239.374L2.9,21.174l3.793-.981Zm8.606-2.581a3.844,3.844,0,0,1-1.168-.175,17.4,17.4,0,0,1-1.717-.625A12.992,12.992,0,0,1,7.316,12.4c-.025-.036-.044-.061-.055-.076A5.619,5.619,0,0,1,6.032,9.251a3.255,3.255,0,0,1,1-2.417l.06-.063a1.1,1.1,0,0,1,.8-.372c.182,0,.391,0,.578.011h.09c.148,0,.372,0,.588.51l.212.507.129.308.044.106c.245.588.5,1.193.543,1.286a.542.542,0,0,1,.025.52l-.025.049-.015.031a1.733,1.733,0,0,1-.262.416c-.04.046-.081.095-.122.144l-.034.041c-.1.122-.206.248-.3.336-.146.143-.311.3-.133.607a8.99,8.99,0,0,0,1.676,2.058,7.829,7.829,0,0,0,2.221,1.385c.09.039.153.066.2.09a.757.757,0,0,0,.327.1.42.42,0,0,0,.326-.17c.2-.226.758-.876.954-1.166a.417.417,0,0,1,.354-.225,1.017,1.017,0,0,1,.323.076c.273.1,1.715.8,2.059.967l.162.078.008,0a.952.952,0,0,1,.408.265,2.446,2.446,0,0,1-.175,1.413,3.1,3.1,0,0,1-2.034,1.413A4.905,4.905,0,0,1,15.294,17.612Z" transform="translate(0 0)"/></svg>