<svg xmlns="http://www.w3.org/2000/svg" viewBox="0 0 107.636 32.403"><defs><style>.a{fill:#4db05b;}</style></defs><path class="a" d="M16.141,32.4A16.171,16.171,0,0,1,0,16.2,16.142,16.142,0,1,1,27.556,27.658,16.006,16.006,0,0,1,16.141,32.4ZM13.647,21.454A16.028,16.028,0,0,1,22.16,23.7a1,1,0,0,0,1.384-.335,1.015,1.015,0,0,0-.334-1.39,17.97,17.97,0,0,0-9.548-2.546,27.55,27.55,0,0,0-6.129.74,1.008,1.008,0,0,0-.757,1.209,1.015,1.015,0,0,0,.981.786.99.99,0,0,0,.223-.025A25.471,25.471,0,0,1,13.647,21.454ZM13.4,16.682a20.3,20.3,0,0,1,10.391,2.69,1.253,1.253,0,0,0,1.731-.417A1.265,1.265,0,0,0,25.1,17.22a22.8,22.8,0,0,0-11.673-3.073,22.158,22.158,0,0,0-6.458.92,1.263,1.263,0,0,0,.364,2.471,1.281,1.281,0,0,0,.366-.055A19.524,19.524,0,0,1,13.4,16.682Zm.381-5.084c4.626,0,8.967,1.007,11.912,2.764a1.514,1.514,0,0,0,1.541-2.606c-3.4-2.025-8.306-3.187-13.458-3.187A27.375,27.375,0,0,0,6.06,9.589a1.519,1.519,0,0,0-1.006,1.89A1.5,1.5,0,0,0,6.5,12.554a1.538,1.538,0,0,0,.439-.066A24.33,24.33,0,0,1,13.778,11.6ZM95.651,27.1a5.28,5.28,0,0,1-2.663-.685.182.182,0,0,1-.079-.238l.846-1.863a.179.179,0,0,1,.108-.1.189.189,0,0,1,.055-.008.231.231,0,0,1,.089.022,2.91,2.91,0,0,0,1.377.392c.545,0,.94-.177,1.347-1.081l-3.57-8.59h-2.33v8.59a.181.181,0,0,1-.183.184H88.153a.183.183,0,0,1-.183-.184V14.946h-1.2a.184.184,0,0,1-.184-.184V12.6a.184.184,0,0,1,.184-.184h1.2v-.53c0-2.463,1.218-3.766,3.523-3.766a6.948,6.948,0,0,1,2.074.3.18.18,0,0,1,.13.175V10.7a.184.184,0,0,1-.076.149.174.174,0,0,1-.106.035.142.142,0,0,1-.058-.009,4.173,4.173,0,0,0-1.407-.261c-.872,0-1.261.454-1.261,1.472v.346h4.264a.183.183,0,0,1,.169.118l2.914,7.635,2.662-7.629a.181.181,0,0,1,.173-.123h2.6a.175.175,0,0,1,.148.08.177.177,0,0,1,.02.17l-4.33,11.228C98.514,26.235,97.5,27.1,95.651,27.1ZM52.34,27.033h-2.5a.183.183,0,0,1-.182-.184V12.61a.183.183,0,0,1,.182-.184h2.5a.182.182,0,0,1,.181.184v1.282a4.363,4.363,0,0,1,3.51-1.694,5.14,5.14,0,0,1,3.611,1.491,6.016,6.016,0,0,1,1.646,4.385c0,3.858-2.645,5.876-5.257,5.876a4.475,4.475,0,0,1-3.51-1.595V26.85A.182.182,0,0,1,52.34,27.033Zm3.113-12.294a3.108,3.108,0,0,0-2.993,3.335,3.108,3.108,0,0,0,2.993,3.335c1.726,0,2.932-1.372,2.932-3.335A3.049,3.049,0,0,0,55.453,14.739Zm12.569,9.231a5.888,5.888,0,1,1,6.017-5.9A5.844,5.844,0,0,1,68.023,23.971Zm0-9.212a3.106,3.106,0,0,0-3.1,3.315,3.181,3.181,0,0,0,3.138,3.356,3.114,3.114,0,0,0,3.117-3.314A3.19,3.19,0,0,0,68.023,14.758Zm-24.665,9.17a9.076,9.076,0,0,1-6.145-2.364.185.185,0,0,1-.017-.256l1.526-1.822a.183.183,0,0,1,.126-.065h.008a.182.182,0,0,1,.124.045,6.394,6.394,0,0,0,4.439,1.84c1.465,0,2.375-.636,2.375-1.66,0-.924-.45-1.44-3.117-2.057-3.133-.761-4.947-1.745-4.947-4.526,0-2.594,2.1-4.406,5.111-4.406a8.221,8.221,0,0,1,5.353,1.86.185.185,0,0,1,.034.249l-1.361,1.926a.177.177,0,0,1-.122.074l-.03,0a.179.179,0,0,1-.107-.036A6.324,6.324,0,0,0,42.8,11.282c-1.3,0-2.168.625-2.168,1.555,0,.984.5,1.452,3.282,2.119l.005,0c3.4.83,4.781,2.116,4.774,4.439C48.7,22.15,46.6,23.928,43.358,23.928Zm35.576-.019c-2.2,0-3.319-1.141-3.319-3.392V14.946h-1.2a.183.183,0,0,1-.182-.184V12.61a.183.183,0,0,1,.182-.184h1.2V9.608a.183.183,0,0,1,.183-.184h2.5a.182.182,0,0,1,.181.184v2.818h2.747a.19.19,0,0,1,.132.056.177.177,0,0,1,.049.13v2.152a.182.182,0,0,1-.181.184H78.475v5.178c0,.817.357,1.182,1.158,1.182a3.14,3.14,0,0,0,1.465-.354.228.228,0,0,1,.083-.02.155.155,0,0,1,.094.027.185.185,0,0,1,.086.155v2.051a.179.179,0,0,1-.093.159A4.534,4.534,0,0,1,78.934,23.909Zm6.308-.188h-2.5a.184.184,0,0,1-.184-.184V12.61a.186.186,0,0,1,.184-.184h2.5a.185.185,0,0,1,.184.185V23.538A.184.184,0,0,1,85.243,23.721Zm20.628-7.781a1.767,1.767,0,1,1,1.766-1.773A1.761,1.761,0,0,1,105.871,15.94Zm.01-3.36a1.592,1.592,0,1,0,1.571,1.587A1.572,1.572,0,0,0,105.88,12.58Zm-.365,2.467h-.349V13.2h.821c.439,0,.711.226.711.59a.548.548,0,0,1-.426.562l.494.7-.419,0-.446-.64h-.384v.64Zm0-1.534V14.1h.457c.225,0,.364-.112.364-.292s-.133-.293-.364-.293ZM84.01,11.043a1.8,1.8,0,1,1,1.788-1.8A1.8,1.8,0,0,1,84.01,11.043Z"/></svg>