<svg xmlns="http://www.w3.org/2000/svg" xmlns:xlink="http://www.w3.org/1999/xlink" viewBox="0 0 94.581 25.86"><defs><style>.a{fill:none;}.b{clip-path:url(#a);}.c{fill:#a6262a;}.d{clip-path:url(#b);}</style><clipPath id="a"><path class="a" d="M0,0H13.393V25.7H0Z" transform="translate(0.209 0.16)"/></clipPath><clipPath id="b"><path class="a" d="M0,0H42.556V25.7H0Z" transform="translate(0.015 0.16)"/></clipPath></defs><g transform="translate(-0.445 -0.039)"><g transform="translate(81.425 0.039)"><path class="a" d="M0,0H13.393V25.7H0Z" transform="translate(0.209 0.16)"/><g class="b"><path class="c" d="M0,24.08q1.912.191,3.819.408l2.806-7.177L9.291,25.15q2.053.267,4.1.559L8.716,11.963,13.393,0H9.432L9.391.058,6.865,6.521,4.647,0H.736L4.774,11.869,0,24.08" transform="translate(0.209 0.16)"/></g></g><path class="c" d="M4.328,24.027V0H0V23.69q2.167.157,4.328.337" transform="translate(74.624 0.039)"/><path class="c" d="M.759,22.778c1.049,0,2.1.008,3.142.017V13.931H8.567V10.157H3.9V3.779H9.274V0H0V22.781c.253,0,.5,0,.759,0" transform="translate(46.801 0.039)"/><g transform="translate(0.43 0.039)"><path class="a" d="M0,0H42.556V25.7H0Z" transform="translate(0.015 0.16)"/><g class="d"><path class="c" d="M3.775,22.7q2.017-.073,4.041-.122V3.727h3.774V0H0V3.727H3.775V22.7" transform="translate(30.982 0.16)"/><path class="c" d="M3.874,25.2V11.026L8.655,24.632q2.205-.249,4.419-.468V0H9.2V14.687L4.041,0H0V25.714H.024q1.921-.267,3.85-.51" transform="translate(0 0.161)"/></g></g><path class="c" d="M9.274,3.769V0H0V24.027q4.616-.421,9.267-.706V19.548q-2.689.165-5.367.377V13.9H8.566V10.13H3.9V3.769H9.274" transform="translate(17.742 0.039)"/><path class="c" d="M3.9,19.326V0H0V22.914q4.654.18,9.274.5V19.645q-2.682-.183-5.373-.318" transform="translate(60.403 0.039)"/></g></svg>