<svg xmlns="http://www.w3.org/2000/svg" viewBox="0 0 201.714 24"><defs><style>.a{fill:#609;}</style></defs><g transform="translate(-0.001)"><path class="a" d="M55.825,23.772a8.05,8.05,0,0,1-8.175-7.9,8.179,8.179,0,0,1,16.349,0A8.05,8.05,0,0,1,55.825,23.772Zm0-11.056a3.156,3.156,0,1,0,3.2,3.157A3.182,3.182,0,0,0,55.825,12.715ZM24.263,23.65H22.507a1.885,1.885,0,0,1-1.872-2.018v-11.5A1.884,1.884,0,0,1,22.507,8.12h1.756a1.884,1.884,0,0,1,1.872,2.017v11.5A1.885,1.885,0,0,1,24.263,23.65Zm13.371-.3a2.656,2.656,0,0,1-2.494-1.066c-.333-.6-2.858-4.969-4.7-8.161l0-.007-.318-.55-.005-.009-.567-.983-.005-.009-.385-.666-.006-.011-.437-.757a1.776,1.776,0,0,1-.124-1.362,1.59,1.59,0,0,1,.838-.986c.382-.186.63-.31.871-.43.168-.085.333-.167.531-.264a2.322,2.322,0,0,1,1.006-.247A1.994,1.994,0,0,1,33.6,8.963c.425.731,3.981,7.734,4.017,7.8h.034l.015-.031.075-.147c1.323-2.6,3.592-7.046,3.931-7.627a1.987,1.987,0,0,1,1.763-1.121,2.316,2.316,0,0,1,1.006.247l.465.231.085.042c.239.12.475.237.851.42a1.6,1.6,0,0,1,.844.995,1.761,1.761,0,0,1-.127,1.354l-1.33,2.31-.008.014-.329.572,0,.008,0,.008c-1.981,3.441-4.413,7.664-4.755,8.24A2.7,2.7,0,0,1,37.634,23.35Zm-28.5,0a2.658,2.658,0,0,1-2.495-1.066c-.319-.577-2.813-4.892-4.3-7.469l0-.008,0-.006-.183-.316-.1-.168C1.261,12.963.372,11.42.205,11.13A1.775,1.775,0,0,1,.081,9.769a1.592,1.592,0,0,1,.841-.987c.347-.169.585-.288.836-.414.179-.09.353-.176.563-.28a2.324,2.324,0,0,1,1.007-.247A1.993,1.993,0,0,1,5.093,8.963c.358.613,2.884,5.577,3.953,7.682l.062.121h.036l0-.008.011-.022.029-.056.049-.1c1.619-3.183,3.615-7.09,3.927-7.622a1.987,1.987,0,0,1,1.763-1.121,2.324,2.324,0,0,1,1.007.247l.023.012.361.18.189.094.124.062.15.075.135.067.416.2a1.6,1.6,0,0,1,.847.994,1.763,1.763,0,0,1-.126,1.354l-.527.914-.632,1.1-.647,1.123-.01.018c-2.1,3.645-4.289,7.447-4.617,8A2.7,2.7,0,0,1,9.13,23.35ZM23.424,6.111a3.082,3.082,0,0,1-3.1-3.056,3.1,3.1,0,0,1,6.2,0A3.082,3.082,0,0,1,23.424,6.111Z"/><path class="a" d="M89.954,16a8.5,8.5,0,0,1-5.774-2.156,7.754,7.754,0,0,1-2.473-5.812A7.8,7.8,0,0,1,84.18,2.2,8.727,8.727,0,0,1,95.7,2.2a7.81,7.81,0,0,1,2.47,5.828,7.766,7.766,0,0,1-2.47,5.812A8.451,8.451,0,0,1,89.954,16Zm0-11.687a3.422,3.422,0,0,0-3.416,3.719,3.414,3.414,0,1,0,6.8,0A3.409,3.409,0,0,0,89.954,4.313ZM23.635,16a8.5,8.5,0,0,1-5.774-2.156,7.754,7.754,0,0,1-2.473-5.812A7.8,7.8,0,0,1,17.861,2.2a8.727,8.727,0,0,1,11.522,0,7.81,7.81,0,0,1,2.47,5.828,7.766,7.766,0,0,1-2.47,5.812A8.451,8.451,0,0,1,23.635,16Zm0-11.687a3.422,3.422,0,0,0-3.416,3.719,3.414,3.414,0,1,0,6.8,0A3.409,3.409,0,0,0,23.635,4.313ZM7.879,16a8.062,8.062,0,0,1-5.59-2.066A7.66,7.66,0,0,1,0,8.187,7.994,7.994,0,0,1,2.493,2.246,8.476,8.476,0,0,1,8.309.032a8.4,8.4,0,0,1,4.955,1.406,1.578,1.578,0,0,1,.492,2.188l-.462.75a1.586,1.586,0,0,1-1.326.794,1.8,1.8,0,0,1-.86-.231A5.07,5.07,0,0,0,8.586,4.25,3.42,3.42,0,0,0,4.831,7.937,3.554,3.554,0,0,0,8.4,11.781a5.375,5.375,0,0,0,2.831-.843,1.89,1.89,0,0,1,.918-.26,1.411,1.411,0,0,1,1.267.791l.461.875a1.545,1.545,0,0,1-.492,2.156A8.94,8.94,0,0,1,7.879,16Zm69.9-.06a1.946,1.946,0,0,1-1.616-.846l-3.016-4.438H71.49v3.532A1.65,1.65,0,0,1,69.7,15.844H68.6a1.667,1.667,0,0,1-1.785-1.656V2.312A1.828,1.828,0,0,1,68.166.5,17.092,17.092,0,0,1,72.5,0c3.454,0,7.571.916,7.571,5.281a4.69,4.69,0,0,1-2.554,4.313l2.8,3.375a1.537,1.537,0,0,1,.36,1.343,1.472,1.472,0,0,1-.883,1l-.831.344A2.836,2.836,0,0,1,77.783,15.94ZM72.448,3.713a5.986,5.986,0,0,0-.958.068V7.094h1.2c1.932,0,2.831-.566,2.831-1.781,0-.953-.977-1.594-2.431-1.594l-.24,0h-.23ZM45.87,15.931a2.195,2.195,0,0,1-1.863-1.119L38.714,7.25h-.031v6.937a1.651,1.651,0,0,1-1.754,1.656h-.8a1.651,1.651,0,0,1-1.754-1.656V1.968A1.77,1.77,0,0,1,36.13.187h1.724a1.886,1.886,0,0,1,1.785,1l5.047,7.469h.031V1.844A1.651,1.651,0,0,1,46.47.187h.769a1.651,1.651,0,0,1,1.754,1.657v12.25a1.5,1.5,0,0,1-1.139,1.562l-1.446.219A2.9,2.9,0,0,1,45.87,15.931Zm12.724-.087H57.21a1.687,1.687,0,0,1-1.786-1.656V4.375H52.409a1.411,1.411,0,0,1-1.416-1.437V1.813A1.5,1.5,0,0,1,52.409.344H63.4a1.448,1.448,0,0,1,1.416,1.469V2.938A1.365,1.365,0,0,1,63.4,4.375H60.38v9.813A1.668,1.668,0,0,1,58.595,15.844Zm65.766-.156H115.5a1.9,1.9,0,0,1-1.908-1.938V2.594a2.2,2.2,0,0,1,2.246-2.25h8.494a1.294,1.294,0,0,1,1.354,1.406V2.844a1.323,1.323,0,0,1-1.354,1.437h-6V5.969h3.755a1.252,1.252,0,0,1,1.292,1.375V8.469a1.236,1.236,0,0,1-1.292,1.344h-3.755V11.75h6.032a1.294,1.294,0,0,1,1.354,1.406V14.25A1.324,1.324,0,0,1,124.36,15.688Zm-14.464,0H102.6a1.9,1.9,0,0,1-1.908-1.938V1.844A1.689,1.689,0,0,1,102.449.187h1.416a1.67,1.67,0,0,1,1.754,1.657v9.687H109.9A1.394,1.394,0,0,1,111.373,13v1.219A1.394,1.394,0,0,1,109.9,15.688Z" transform="translate(76 8)"/></g></svg>