<svg xmlns="http://www.w3.org/2000/svg" viewBox="0 0 653 653"><defs><style>.a,.b{fill:#075e54;}.a{opacity:0.1;}.c{fill:#fff;}</style></defs><circle class="a" cx="326.5" cy="326.5" r="326.5"/><circle class="a" cx="184.5" cy="184.5" r="184.5" transform="translate(142 142)"/><circle class="b" cx="112" cy="112" r="112" transform="translate(214 214)"/><path class="c" d="M0,90.6v0L6.4,67.333A44.879,44.879,0,0,1,45.487,0,44.934,44.934,0,0,1,77.4,13.166,44.51,44.51,0,0,1,90.6,44.925,45.065,45.065,0,0,1,45.488,89.817h-.019a45.365,45.365,0,0,1-21.556-5.464L0,90.6ZM25.822,75.709v0h0l1.362.805a37.244,37.244,0,0,0,18.987,5.2h.015a37.3,37.3,0,1,0-31.6-17.474l.887,1.41L11.7,79.411Zm32.2-8.206a14.4,14.4,0,0,1-4.4-.664,65.74,65.74,0,0,1-6.477-2.38c-9.265-3.978-16.013-12.22-19.211-16.779l-.021-.031c-.084-.12-.144-.206-.179-.252l-.008-.011c-1.393-1.847-4.632-6.681-4.632-11.678a12.419,12.419,0,0,1,3.756-9.19l.065-.069.156-.167A4.152,4.152,0,0,1,30.1,24.87c.69,0,1.488,0,2.178.04.056,0,.113,0,.167,0h.184c.706,0,1.458.15,2.206,1.937.252.6.6,1.447.971,2.342l.293.708,0,.007.006.015c.957,2.316,2.041,4.942,2.23,5.317a2.075,2.075,0,0,1,.1,1.98c-.034.068-.067.133-.1.2l-.06.122A6.446,6.446,0,0,1,37.3,39.1c-.179.209-.368.438-.551.659l-.027.032c-.386.467-.785.95-1.127,1.288-.549.543-1.17,1.159-.5,2.307a34.033,34.033,0,0,0,6.322,7.826A29.6,29.6,0,0,0,49.8,56.488c.3.127.557.24.75.335a2.833,2.833,0,0,0,1.237.364,1.579,1.579,0,0,0,1.225-.647c.56-.637,2.812-3.257,3.6-4.429a1.573,1.573,0,0,1,1.338-.858,3.766,3.766,0,0,1,1.219.292c1.086.392,6.966,3.278,7.765,3.676.2.1.382.187.559.272l.058.028a3.679,3.679,0,0,1,1.562,1.02c.276.46.292,2.711-.662,5.373a8.009,8.009,0,0,1-3.372,3.555,12.544,12.544,0,0,1-4.3,1.818A18.646,18.646,0,0,1,58.022,67.5Z" transform="translate(282 282)"/></svg>